<?xml version="1.0" encoding="utf-8"?>
<!-- Generator: Adobe Illustrator 22.0.1, SVG Export Plug-In . SVG Version: 6.00 Build 0)  -->
<svg version="1.1" id="Layer_1" xmlns="http://www.w3.org/2000/svg" xmlns:xlink="http://www.w3.org/1999/xlink" x="0px" y="0px"
	 viewBox="0 0 219.2 111.8" style="enable-background:new 0 0 219.2 111.8;" xml:space="preserve">
<style type="text/css">
	.st0{fill:#FFFFFF;}
	.st1{fill:none;stroke:#DFDFDF;stroke-width:0.5002;stroke-linejoin:round;stroke-miterlimit:10;}
	.st2{fill:none;stroke:#262626;stroke-width:0.5002;stroke-linecap:square;stroke-linejoin:round;stroke-miterlimit:10;}
	.st3{font-family:'TimesNewRomanPSMT';}
	.st4{font-size:3px;}
	.st5{fill:none;stroke:#F6EC13;stroke-width:0.5002;stroke-linejoin:round;stroke-miterlimit:10;}
	.st6{fill:#F6EC13;}
	.st7{fill:none;stroke:#F6EC13;stroke-width:0.75;stroke-linejoin:round;stroke-miterlimit:10;}
	.st8{fill:none;stroke:#4D4B55;stroke-width:0.5002;stroke-linejoin:round;stroke-miterlimit:10;}
	.st9{fill:none;stroke:#4D4B55;stroke-width:0.75;stroke-linejoin:round;stroke-miterlimit:10;}
	.st10{fill:none;stroke:#3F50A2;stroke-width:0.5002;stroke-linejoin:round;stroke-miterlimit:10;}
	.st11{fill:#3F50A2;}
	.st12{fill:none;stroke:#3F50A2;stroke-width:0.75;stroke-linejoin:round;stroke-miterlimit:10;}
	.st13{fill:none;stroke:#842D66;stroke-width:0.5002;stroke-linejoin:round;stroke-miterlimit:10;}
	.st14{fill:none;stroke:#842D66;stroke-width:0.75;stroke-linejoin:round;stroke-miterlimit:10;}
	.st15{fill:none;stroke:#76A641;stroke-width:0.5002;stroke-linejoin:round;stroke-miterlimit:10;}
	.st16{fill:#76A641;}
	.st17{fill:none;stroke:#76A641;stroke-width:0.75;stroke-miterlimit:10;}
	.st18{fill:none;stroke:#6FCCDD;stroke-width:0.5002;stroke-linejoin:round;stroke-miterlimit:10;}
	.st19{fill:none;stroke:#6FCCDD;stroke-width:0.75;stroke-linejoin:round;stroke-miterlimit:10;}
	.st20{fill:none;stroke:#B9529F;stroke-width:0.5002;stroke-linejoin:round;stroke-miterlimit:10;}
	.st21{fill:none;stroke:#B9529F;stroke-width:0.75;stroke-linejoin:round;stroke-miterlimit:10;}
	.st22{font-size:2.8382px;}
	.st23{letter-spacing:6.8;}
	.st24{font-size:2.2469px;}
	.st25{fill:none;stroke:#262626;stroke-width:0.5002;stroke-miterlimit:10;}
	.st26{font-size:4px;}
</style>
<g>
	<rect x="45.2" y="3.2" class="st0" width="66.9" height="38.9"/>
	<path class="st1" d="M51.9,42.1V3.2 M69.7,42.1V3.2 M105.4,42.1V3.2 M112.1,42.1H45.2 M112.1,32.3H45.2 M112.1,22.6H45.2
		 M112.1,12.9H45.2 M112.1,3.2H45.2"/>
	<path class="st2" d="M45.2,42.1h66.9 M51.9,42.1v-0.8 M69.7,42.1v-0.8 M105.4,42.1v-0.8"/>
	<text transform="matrix(0.8809 0 0 1 104.2721 45.4117)" class="st3 st4">32</text>
	<path class="st2" d="M45.2,42.1V3.2 M45.2,42.1h0.7 M45.2,32.3h0.7 M45.2,22.6h0.7 M45.2,12.9h0.7 M45.2,3.2h0.7"/>
	<text transform="matrix(0.8809 0 0 1 40.1608 43.1968)" class="st3 st4">500</text>
	<text transform="matrix(0.8809 0 0 1 38.8054 33.4693)" class="st3 st4">1000</text>
	<text transform="matrix(0.8809 0 0 1 38.8054 23.7427)" class="st3 st4">1500</text>
	<text transform="matrix(0.8809 0 0 1 38.8054 14.0162)" class="st3 st4">2000</text>
	<text transform="matrix(0.8809 0 0 1 38.8054 4.2896)" class="st3 st4">2500</text>
	<polyline class="st5" points="51.9,9.7 69.7,20.5 105.4,35.1 	"/>
	<polygon class="st6" points="52.6,9.7 52.4,9.3 52.1,9.1 51.7,9.1 51.4,9.3 51.3,9.7 51.4,10.1 51.7,10.4 52.1,10.4 52.4,10.1 
		52.6,9.7 	"/>
	<polygon class="st7" points="52.6,9.7 52.5,9.4 52.2,9.1 51.9,9 51.6,9.1 51.4,9.4 51.3,9.7 51.4,10.1 51.6,10.3 51.9,10.4 
		52.2,10.3 52.5,10.1 	"/>
	<polygon class="st6" points="70.4,20.5 70.2,20.1 69.9,19.8 69.5,19.8 69.2,20.1 69.1,20.5 69.2,20.9 69.5,21.2 69.9,21.2 
		70.2,20.9 70.4,20.5 	"/>
	<polygon class="st7" points="70.4,20.5 70.3,20.1 70.1,19.9 69.7,19.8 69.4,19.9 69.2,20.1 69.1,20.5 69.2,20.8 69.4,21.1 
		69.7,21.2 70.1,21.1 70.3,20.8 	"/>
	<polygon class="st6" points="106,35 105.9,34.6 105.6,34.4 105.2,34.4 104.9,34.6 104.7,35 104.9,35.5 105.2,35.7 105.6,35.7 
		105.9,35.5 106,35 	"/>
	<polygon class="st7" points="106,35 105.9,34.7 105.7,34.4 105.4,34.3 105.1,34.4 104.8,34.7 104.7,35 104.8,35.4 105.1,35.7 
		105.4,35.7 105.7,35.7 105.9,35.4 	"/>
	<polyline class="st8" points="51.9,25.6 69.7,36.1 105.4,39.3 	"/>
	<path class="st9" d="M51.2,25.6h1.4 M51.9,26.3v-1.5 M51.5,26.1l0.9-1.1 M51.5,25l0.9,1.1 M69.1,36.1h1.4 M69.7,36.9v-1.5
		 M69.3,36.6l0.9-1.1 M69.3,35.6l0.9,1.1 M104.7,39.3h1.4 M105.4,40.1v-1.5 M104.9,39.8l0.9-1.1 M104.9,38.8l0.9,1.1"/>
	<polyline class="st10" points="51.9,26.1 69.7,35.6 105.4,38.1 	"/>
	<polygon class="st11" points="52.6,26 52.4,25.6 52.1,25.4 51.7,25.4 51.4,25.6 51.3,26 51.4,26.5 51.7,26.7 52.1,26.7 52.4,26.5 
		52.6,26 	"/>
	<polygon class="st12" points="52.6,26 52.5,25.7 52.2,25.4 51.9,25.3 51.6,25.4 51.4,25.7 51.3,26 51.4,26.4 51.6,26.7 51.9,26.8 
		52.2,26.7 52.5,26.4 	"/>
	<polygon class="st11" points="70.4,35.6 70.2,35.2 69.9,35 69.5,35 69.2,35.2 69.1,35.6 69.2,36 69.5,36.3 69.9,36.3 70.2,36 
		70.4,35.6 	"/>
	<polygon class="st12" points="70.4,35.6 70.3,35.3 70.1,35 69.7,34.9 69.4,35 69.2,35.3 69.1,35.6 69.2,36 69.4,36.2 69.7,36.3 
		70.1,36.2 70.3,36 	"/>
	<polygon class="st11" points="106,38.1 105.9,37.7 105.6,37.4 105.2,37.4 104.9,37.7 104.7,38.1 104.9,38.5 105.2,38.8 105.6,38.8 
		105.9,38.5 106,38.1 	"/>
	<polygon class="st12" points="106,38.1 105.9,37.8 105.7,37.5 105.4,37.4 105.1,37.5 104.8,37.8 104.7,38.1 104.8,38.5 105.1,38.7 
		105.4,38.8 105.7,38.7 105.9,38.5 	"/>
	<polyline class="st13" points="51.9,25.1 69.7,35.2 105.4,37.8 	"/>
	<path class="st14" d="M51.2,25.1h1.4 M51.9,25.9v-1.5 M69.1,35.3h1.4 M69.7,36v-1.5 M104.7,37.9h1.4 M105.4,38.6v-1.5"/>
	<polyline class="st15" points="51.9,24.9 69.7,34.2 105.4,36.1 	"/>
	<polygon class="st16" points="51.2,25.3 52.6,25.3 51.9,23.9 	"/>
	<polygon class="st17" points="51.2,25.3 52.6,25.3 51.9,23.9 	"/>
	<polygon class="st16" points="69,34.7 70.5,34.7 69.7,33.3 	"/>
	<polygon class="st17" points="69,34.7 70.5,34.7 69.7,33.3 	"/>
	<polygon class="st16" points="104.6,36.6 106.1,36.6 105.4,35.2 	"/>
	<polygon class="st17" points="104.6,36.6 106.1,36.6 105.4,35.2 	"/>
	<polyline class="st18" points="51.9,17.4 69.7,28.2 105.4,34.3 	"/>
	<path class="st19" d="M51.5,17.9l0.9-1.1 M51.5,16.9l0.9,1.1 M69.3,28.7l0.9-1.1 M69.3,27.6l0.9,1.1 M104.9,34.9l0.9-1.1
		 M104.9,33.8l0.9,1.1"/>
	<polyline class="st20" points="51.9,19.5 69.7,28.8 105.4,36.1 	"/>
	<path class="st21" d="M51.5,20.1l0.9-1.1 M51.5,19l0.9,1.1 M69.3,29.3l0.9-1.1 M69.3,28.2l0.9,1.1 M104.9,36.6l0.9-1.1 M104.9,35.6
		l0.9,1.1"/>
	<line class="st5" x1="2.3" y1="5.5" x2="6.5" y2="5.5"/>
	<polygon class="st6" points="5,5.5 4.9,5.1 4.6,4.9 4.2,4.9 3.9,5.1 3.8,5.5 3.9,6 4.2,6.2 4.6,6.2 4.9,6 5,5.5 	"/>
	<polygon class="st7" points="5,5.5 4.9,5.2 4.7,4.9 4.4,4.8 4.1,4.9 3.9,5.2 3.8,5.5 3.9,5.9 4.1,6.2 4.4,6.2 4.7,6.2 4.9,5.9 	"/>
	<line class="st8" x1="2.4" y1="21.6" x2="6.5" y2="21.6"/>
	<path class="st9" d="M3.8,21.6h1.4 M4.5,22.4v-1.5 M4,22.2L5,21.1 M4,21.1L5,22.2"/>
	<line class="st10" x1="2.3" y1="16.5" x2="6.5" y2="16.5"/>
	<polygon class="st11" points="5.1,16.5 4.9,16.1 4.6,15.8 4.2,15.8 3.9,16.1 3.8,16.5 3.9,16.9 4.2,17.2 4.6,17.2 4.9,16.9 
		5.1,16.5 	"/>
	<polygon class="st12" points="5,16.5 4.9,16.1 4.7,15.9 4.4,15.8 4.1,15.9 3.9,16.1 3.8,16.5 3.9,16.8 4.1,17.1 4.4,17.2 4.7,17.1 
		4.9,16.8 	"/>
	<line class="st13" x1="2.3" y1="10.6" x2="6.5" y2="10.6"/>
	<path class="st14" d="M3.8,10.5h1.4 M4.4,11.3V9.8"/>
	<line class="st15" x1="2.3" y1="27.6" x2="6.5" y2="27.6"/>
	<polygon class="st16" points="3.7,28 5.1,28 4.4,26.6 	"/>
	<polygon class="st17" points="3.8,28 5.2,28 4.5,26.6 	"/>
	<line class="st18" x1="2.2" y1="33.6" x2="6.4" y2="33.6"/>
	<path class="st19" d="M3.9,33.2l0.9,0.9 M3.9,34.1l0.9-0.9"/>
	<line class="st20" x1="2.3" y1="40" x2="6.5" y2="40"/>
	<path class="st21" d="M4,40.6l0.9-1.1 M4,39.5l0.9,1.1"/>
	<rect x="133.2" y="3.2" class="st0" width="67" height="38.9"/>
	<path class="st2" d="M133.2,42.1h67 M133.2,42.1v-0.8 M141.6,42.1v-0.8 M150,42.1v-0.8 M158.3,42.1v-0.8 M166.7,42.1v-0.8
		 M175.1,42.1v-0.8 M183.5,42.1v-0.8 M191.8,42.1v-0.8 M200.2,42.1v-0.8"/>
	<text transform="matrix(0.8809 0 0 1 131.4587 45.9127)" class="st3 st22">0.</text>
	<text transform="matrix(0.8809 0 0 1 133.2575 45.9127)" class="st3 st22 st23">51</text>
	<text transform="matrix(0.8809 0 0 1 148.2028 45.9127)" class="st3 st22">1.</text>
	<text transform="matrix(0.8809 0 0 1 150.0026 45.9127)" class="st3 st22 st23">52</text>
	<text transform="matrix(0.8809 0 0 1 164.9479 45.9127)" class="st3 st22">2.</text>
	<text transform="matrix(0.8809 0 0 1 166.7477 45.9127)" class="st3 st22 st23">53</text>
	<text transform="matrix(0.8809 0 0 1 181.6931 45.9127)" class="st3 st22">3.</text>
	<text transform="matrix(0.8809 0 0 1 183.4919 45.9127)" class="st3 st22 st23">54</text>
	<text transform="matrix(0.8809 0 0 1 198.4372 45.9127)" class="st3 st22">4.</text>
	<text transform="matrix(0.8809 0 0 1 200.237 45.9127)" class="st3 st22">5</text>
	<text transform="matrix(0.8809 0 0 1 194.2702 50.5875)" class="st3 st22">×</text>
	<text transform="matrix(0.8809 0 0 1 196.2497 50.5875)" class="st3 st4">10</text>
	<text transform="matrix(0.8809 0 0 1 199.0622 49.1685)" class="st3 st24">4</text>
	<path class="st2" d="M133.2,42.1V3.2 M133.2,42.1h0.7 M133.2,29.1h0.7 M133.2,16.1h0.7 M133.2,3.2h0.7"/>
	<text transform="matrix(0.8809 0 0 1 126.8259 43.1968)" class="st3 st4">1100</text>
	<text transform="matrix(0.8809 0 0 1 126.8259 30.2271)" class="st3 st4">1200</text>
	<text transform="matrix(0.8809 0 0 1 126.8259 17.2584)" class="st3 st4">1300</text>
	<text transform="matrix(0.8809 0 0 1 126.8259 4.2896)" class="st3 st4">1400</text>
	<path class="st14" d="M160,8.8h1.4 M160.7,9.6V8 M155.9,8.7h1.4 M156.6,9.4V7.9 M157.5,8.7h1.4 M158.2,9.4V7.9 M156,8.7h1.4
		 M156.7,9.4V7.9 M159.1,8.7h1.4 M159.7,9.4V7.9 M163.8,8.7h1.4 M164.4,9.4V7.9 M155.4,8.5h1.4 M156.1,9.3V7.8 M154.3,8.1h1.4
		 M154.9,8.8V7.3"/>
	<line class="st13" x1="136.1" y1="8.1" x2="191.9" y2="8.1"/>
	<path class="st12" d="M154.4,15.4l-0.1-0.4l-0.2-0.3l-0.3-0.1l-0.3,0.1l-0.2,0.3l-0.1,0.4l0.1,0.4l0.2,0.3l0.3,0.1l0.3-0.1l0.2-0.3
		L154.4,15.4z M156.9,15.4l-0.1-0.4l-0.2-0.3l-0.3-0.1l-0.3,0.1l-0.2,0.3l-0.1,0.4l0.1,0.4L156,16l0.3,0.1l0.3-0.1l0.2-0.3
		L156.9,15.4z M159.8,15.4l-0.1-0.4l-0.2-0.3l-0.3-0.1l-0.3,0.1l-0.2,0.3l-0.1,0.4l0.1,0.4l0.2,0.3l0.3,0.1l0.3-0.1l0.2-0.3
		L159.8,15.4z M163.3,15.4l-0.1-0.4l-0.2-0.3l-0.3-0.1l-0.3,0.1l-0.2,0.3l-0.1,0.4l0.1,0.4l0.2,0.3l0.3,0.1L163,16l0.2-0.3
		L163.3,15.4z M157.1,15.4l-0.1-0.4l-0.2-0.3l-0.3-0.1l-0.3,0.1l-0.2,0.3l-0.1,0.4l0.1,0.4l0.2,0.3l0.3,0.1l0.3-0.1l0.2-0.3
		L157.1,15.4z M162,15.2l-0.1-0.4l-0.2-0.3l-0.3-0.1l-0.3,0.1l-0.2,0.3l-0.1,0.4l0.1,0.4l0.2,0.3l0.3,0.1l0.3-0.1l0.2-0.3L162,15.2z
		 M160.2,15.1l-0.1-0.4l-0.2-0.3l-0.3-0.1l-0.3,0.1l-0.2,0.3l-0.1,0.4l0.1,0.4l0.2,0.3l0.3,0.1l0.3-0.1l0.2-0.3L160.2,15.1z
		 M158.5,14.6l-0.1-0.4l-0.2-0.3l-0.3-0.1l-0.3,0.1l-0.2,0.3l-0.1,0.4l0.1,0.4l0.2,0.3l0.3,0.1l0.3-0.1l0.2-0.3L158.5,14.6z"/>
	<line class="st10" x1="136.1" y1="14.6" x2="191.9" y2="14.6"/>
	<path class="st9" d="M161.3,15.1h1.4 M161.9,15.8v-1.5 M161.5,15.6l0.9-1.1 M161.5,14.5l0.9,1.1 M153.4,14.8h1.4 M154.1,15.6V14
		 M153.6,15.3l0.9-1.1 M153.6,14.3l0.9,1.1 M154.3,14.8h1.4 M154.9,15.6V14 M154.5,15.3l0.9-1.1 M154.5,14.3l0.9,1.1 M165.2,14.7
		h1.4 M165.9,15.5v-1.5 M165.4,15.2l0.9-1.1 M165.4,14.2l0.9,1.1 M160.2,14.3h1.4 M160.9,15.1v-1.5 M160.4,14.9l0.9-1.1 M160.4,13.8
		l0.9,1.1 M157.9,14.2h1.4 M158.6,15v-1.5 M158.1,14.8l0.9-1.1 M158.1,13.7l0.9,1.1 M155.2,12.3h1.4 M155.9,13.1v-1.5 M155.4,12.9
		l0.9-1.1 M155.4,11.8l0.9,1.1 M154.3,11.5h1.4 M154.9,12.3v-1.5 M154.5,12l0.9-1.1 M154.5,11l0.9,1.1"/>
	<line class="st8" x1="136.1" y1="11.5" x2="191.9" y2="11.5"/>
	<path class="st17" d="M171.1,41.5h1.4l-0.7-1.4L171.1,41.5z M191.2,41.5h1.4l-0.7-1.4L191.2,41.5z M154.2,41.3h1.4l-0.7-1.4
		L154.2,41.3z M163.3,40.9h1.4l-0.7-1.4L163.3,40.9z M157.9,40.7h1.4l-0.7-1.4L157.9,40.7z M147.5,39.1h1.4l-0.7-1.4L147.5,39.1z
		 M135.4,37h1.4l-0.7-1.4L135.4,37z M140.9,7.4h1.4l-0.7-1.4L140.9,7.4z"/>
	<line class="st15" x1="136.1" y1="6.9" x2="191.9" y2="6.9"/>
	<rect x="182.4" y="4.7" class="st0" width="16.5" height="17.5"/>
	<path class="st14" d="M184.3,6.4h1.9 M185.2,7.4V5.3"/>
	<polygon class="st12" points="186.1,9.9 186,9.4 185.7,9 185.2,8.9 184.8,9 184.5,9.4 184.4,9.9 184.5,10.3 184.8,10.7 185.2,10.8 
		185.7,10.7 186,10.3 	"/>
	<path class="st9" d="M184.2,13h2.1 M185.2,14.2v-2.4 M184.5,13.8l1.5-1.6 M184.5,12.1l1.5,1.6"/>
	<polygon class="st17" points="183.8,19 186.7,19 185.2,16.1 	"/>
	<line class="st15" x1="183.2" y1="22.2" x2="187.4" y2="22.2"/>
	<rect x="182.4" y="4.7" class="st25" width="25.9" height="20.7"/>
	<rect x="45.2" y="57.2" class="st0" width="66.9" height="38.9"/>
	<path class="st2" d="M45.2,96.1h66.9 M45.2,96.1v-0.8 M58.6,96.1v-0.8 M72,96.1v-0.8 M85.3,96.1v-0.8 M98.7,96.1v-0.8 M112.1,96.1
		v-0.8"/>
	<text transform="matrix(0.8809 0 0 1 106.1462 104.6304)" class="st3 st22">×</text>
	<text transform="matrix(0.8809 0 0 1 108.1247 104.6304)" class="st3 st4">10</text>
	<text transform="matrix(0.8809 0 0 1 110.9372 103.2115)" class="st3 st24">4</text>
	<path class="st2" d="M45.2,96.1V57.2 M45.2,96.1h0.7 M45.2,83.1h0.7 M45.2,70.2h0.7 M45.2,57.2h0.7"/>
	<text transform="matrix(0.8809 0 0 1 40.1608 97.2398)" class="st3 st4">750</text>
	<text transform="matrix(0.8809 0 0 1 40.1608 84.2711)" class="st3 st4">800</text>
	<text transform="matrix(0.8809 0 0 1 40.1608 71.3023)" class="st3 st4">850</text>
	<text transform="matrix(0.8809 0 0 1 40.1608 58.3336)" class="st3 st4">900</text>
	<path class="st14" d="M80.1,78.8h1.4 M80.8,79.6V78 M68.9,78.8h1.4 M69.5,79.6V78 M69.8,78.8h1.4 M70.5,79.6V78 M70.3,78.8h1.4
		 M71,79.6V78 M67.6,78.8H69 M68.3,79.6V78 M70.7,78.8h1.4 M71.4,79.6V78 M72.1,78.7h1.4 M72.8,79.4v-1.5 M70.7,78.7h1.4 M71.4,79.4
		v-1.5 M70.8,78.6h1.4 M71.5,79.3v-1.5 M73.8,78.6h1.4 M74.4,79.3v-1.5 M68.3,78.4h1.4 M69,79.2v-1.5 M75.9,78.1h1.4 M76.6,78.9
		v-1.5 M67.3,77.8h1.4 M68,78.6v-1.5 M74.1,77.6h1.4 M74.7,78.4v-1.5 M72,77h1.4 M72.7,77.8v-1.5 M68.9,72.5h1.4 M69.5,73.3v-1.5"/>
	<line class="st13" x1="53.7" y1="72.5" x2="101.8" y2="72.5"/>
	<path class="st12" d="M71,79.4L70.9,79l-0.2-0.3l-0.3-0.1l-0.3,0.1L69.8,79l-0.1,0.4l0.1,0.4l0.2,0.3l0.3,0.1l0.3-0.1l0.2-0.3
		L71,79.4z M73.3,79.4L73.2,79L73,78.8l-0.3-0.1l-0.3,0.1L72.1,79L72,79.4l0.1,0.4l0.2,0.3l0.3,0.1L73,80l0.2-0.3L73.3,79.4z
		 M70.2,79.4L70.1,79l-0.2-0.3l-0.3-0.1l-0.3,0.1L69,79l-0.1,0.4l0.1,0.4l0.2,0.3l0.3,0.1l0.3-0.1l0.2-0.3L70.2,79.4z M82.8,79.3
		l-0.1-0.4l-0.2-0.3l-0.3-0.1l-0.3,0.1l-0.2,0.3l-0.1,0.4l0.1,0.4l0.2,0.3l0.3,0.1l0.3-0.1l0.2-0.3L82.8,79.3z M73.7,79.3l-0.1-0.4
		l-0.2-0.3l-0.3-0.1l-0.3,0.1l-0.2,0.3l-0.1,0.4l0.1,0.4l0.2,0.3l0.3,0.1l0.3-0.1l0.2-0.3L73.7,79.3z M72.6,79.1l-0.1-0.4l-0.2-0.3
		l-0.3-0.1l-0.3,0.1l-0.2,0.3l-0.1,0.4l0.1,0.4l0.2,0.3l0.3,0.1l0.3-0.1l0.2-0.3L72.6,79.1z M74.9,79.1l-0.1-0.4l-0.2-0.3l-0.3-0.1
		L74,78.5l-0.2,0.3l-0.1,0.4l0.1,0.4l0.2,0.3l0.3,0.1l0.3-0.1l0.2-0.3L74.9,79.1z M71.5,79l-0.1-0.4l-0.2-0.3l-0.3-0.1l-0.3,0.1
		l-0.2,0.3L70.3,79l0.1,0.4l0.2,0.3l0.3,0.1l0.3-0.1l0.2-0.3L71.5,79z M67.6,78.6l-0.1-0.4l-0.2-0.3l-0.3-0.1l-0.3,0.1l-0.2,0.3
		l-0.1,0.4l0.1,0.4l0.2,0.3l0.3,0.1l0.3-0.1l0.2-0.3L67.6,78.6z M71,78.4l-0.1-0.4l-0.2-0.3l-0.3-0.1l-0.3,0.1l-0.2,0.3l-0.1,0.4
		l0.1,0.4l0.2,0.3l0.3,0.1l0.3-0.1l0.2-0.3L71,78.4z M70.5,78.4l-0.1-0.4l-0.2-0.3l-0.3-0.1l-0.3,0.1l-0.2,0.3l-0.1,0.4l0.1,0.4
		l0.2,0.3l0.3,0.1l0.3-0.1l0.2-0.3L70.5,78.4z M73.9,78.3L73.8,78l-0.2-0.3l-0.3-0.1L73,77.7L72.7,78l-0.1,0.4l0.1,0.4l0.2,0.3
		l0.3,0.1l0.3-0.1l0.2-0.3L73.9,78.3z M81.8,78.3L81.7,78l-0.2-0.3l-0.3-0.1l-0.3,0.1L80.7,78l-0.1,0.4l0.1,0.4l0.2,0.3l0.3,0.1
		l0.3-0.1l0.2-0.3L81.8,78.3z M70.5,78l-0.1-0.4l-0.2-0.3l-0.3-0.1l-0.3,0.1l-0.2,0.3L69.2,78l0.1,0.4l0.2,0.3l0.3,0.1l0.3-0.1
		l0.2-0.3L70.5,78z M70.2,77.8l-0.1-0.4l-0.2-0.3l-0.3-0.1l-0.3,0.1L69,77.5l-0.1,0.4l0.1,0.4l0.2,0.3l0.3,0.1l0.3-0.1l0.2-0.3
		L70.2,77.8z M66.9,77.1l-0.1-0.4l-0.2-0.3l-0.3-0.1L66,76.5l-0.2,0.3l-0.1,0.4l0.1,0.4l0.2,0.3l0.3,0.1l0.3-0.1l0.2-0.3L66.9,77.1z
		"/>
	<line class="st10" x1="53.7" y1="77.2" x2="101.8" y2="77.2"/>
	<path class="st9" d="M62.4,93.2h1.4 M63.1,94v-1.5 M62.6,93.8l0.9-1.1 M62.6,92.7l0.9,1.1 M69.9,93.1h1.4 M70.6,93.9v-1.5
		 M70.1,93.6l0.9-1.1 M70.1,92.6l0.9,1.1 M72.6,93.1H74 M73.3,93.9v-1.5 M72.8,93.6l0.9-1.1 M72.8,92.6l0.9,1.1 M78,92.5h1.4
		 M78.7,93.3v-1.5 M78.2,93l0.9-1.1 M78.2,92l0.9,1.1 M68.6,92.4H70 M69.3,93.2v-1.5 M68.9,92.9l0.9-1.1 M68.9,91.9l0.9,1.1
		 M80.6,92.4H82 M81.3,93.2v-1.5 M80.8,92.9l0.9-1.1 M80.8,91.9l0.9,1.1 M64.6,92.2h1.4 M65.3,92.9v-1.5 M64.8,92.7l0.9-1.1
		 M64.8,91.6l0.9,1.1 M79.3,92.2h1.4 M79.9,92.9v-1.5 M79.5,92.7l0.9-1.1 M79.5,91.6l0.9,1.1 M65.9,92.2h1.4 M66.6,92.9v-1.5
		 M66.1,92.7l0.9-1.1 M66.1,91.6l0.9,1.1 M79.7,91.1H81 M80.4,91.9v-1.5 M79.9,91.6l0.9-1.1 M79.9,90.6l0.9,1.1 M63.2,91.1h1.4
		 M63.9,91.9v-1.5 M63.4,91.6l0.9-1.1 M63.4,90.6l0.9,1.1 M71.3,90.4h1.4 M71.9,91.1v-1.5 M71.5,90.9l0.9-1.1 M71.5,89.8l0.9,1.1
		 M69.9,89.8h1.4 M70.6,90.6V89 M70.1,90.3l0.9-1.1 M70.1,89.3l0.9,1.1 M68.6,89H70 M69.3,89.7v-1.5 M68.9,89.5l0.9-1.1 M68.9,88.4
		l0.9,1.1 M68.6,88.5H70 M69.3,89.3v-1.5 M68.9,89l0.9-1.1 M68.9,88l0.9,1.1 M78,84.1h1.4 M78.7,84.9v-1.5 M78.2,84.6l0.9-1.1
		 M78.2,83.6l0.9,1.1"/>
	<line class="st8" x1="53.7" y1="84.2" x2="101.8" y2="84.2"/>
	<path class="st17" d="M75.9,92.7h1.4l-0.7-1.4L75.9,92.7z M67.5,92.7h1.4l-0.7-1.4L67.5,92.7z M62.7,92.7h1.4l-0.7-1.4L62.7,92.7z
		 M61.3,92.7h1.4L62,91.3L61.3,92.7z M91.8,92.6h1.4l-0.7-1.4L91.8,92.6z M68.6,92.4H70L69.3,91L68.6,92.4z M101.1,90.4h1.4
		l-0.7-1.4L101.1,90.4z M81.7,90.4h1.4L82.4,89L81.7,90.4z M92.9,90.4h1.4L93.6,89L92.9,90.4z M65.7,89.6h1.4l-0.7-1.4L65.7,89.6z
		 M79.6,88h1.4l-0.7-1.4L79.6,88z M69.6,85.5h1.4l-0.7-1.4L69.6,85.5z M54.2,84.5h1.4L54.9,83L54.2,84.5z M53,79h1.4l-0.7-1.4L53,79
		z M57,59.8h1.4l-0.7-1.4L57,59.8z M57.9,58.9h1.4l-0.7-1.4L57.9,58.9z"/>
	<line class="st15" x1="53.7" y1="58.5" x2="101.8" y2="58.5"/>
	<rect x="133.2" y="57.2" class="st0" width="67" height="38.9"/>
	<path class="st2" d="M133.2,96.1h67 M133.2,96.1v-0.8 M146.6,96.1v-0.8 M160,96.1v-0.8 M173.4,96.1v-0.8 M186.8,96.1v-0.8
		 M200.2,96.1v-0.8"/>
	<text transform="matrix(0.8809 0 0 1 132.4997 99.9556)" class="st3 st4">0</text>
	<text transform="matrix(0.8809 0 0 1 143.8132 99.9556)" class="st3 st4">2000</text>
	<text transform="matrix(0.8809 0 0 1 157.2077 99.9556)" class="st3 st4">4000</text>
	<text transform="matrix(0.8809 0 0 1 170.6042 99.9556)" class="st3 st4">6000</text>
	<text transform="matrix(0.8809 0 0 1 183.9997 99.9556)" class="st3 st4">8000</text>
	<text transform="matrix(0.8809 0 0 1 196.7184 99.9556)" class="st3 st4">10000</text>
	<path class="st2" d="M133.2,96.1V57.2 M133.2,96.1h0.7 M133.2,88.3h0.7 M133.2,80.6h0.7 M133.2,72.8h0.7 M133.2,65h0.7 M133.2,57.2
		h0.7"/>
	<text transform="matrix(0.8809 0 0 1 128.1813 97.2398)" class="st3 st4">550</text>
	<text transform="matrix(0.8809 0 0 1 128.1813 89.4586)" class="st3 st4">600</text>
	<text transform="matrix(0.8809 0 0 1 128.1813 81.6763)" class="st3 st4">650</text>
	<text transform="matrix(0.8809 0 0 1 128.1813 73.8951)" class="st3 st4">700</text>
	<text transform="matrix(0.8809 0 0 1 128.1813 66.1148)" class="st3 st4">750</text>
	<text transform="matrix(0.8809 0 0 1 128.1813 58.3336)" class="st3 st4">800</text>
	<path class="st14" d="M169.1,77h1.4 M169.7,77.8v-1.5 M174.1,76.9h1.4 M174.7,77.7v-1.5 M165.4,76.9h1.4 M166.1,77.7v-1.5
		 M155.3,76.9h1.4 M156,77.7v-1.5 M173.1,76.9h1.4 M173.8,77.7v-1.5 M165,76.9h1.4 M165.7,77.7v-1.5 M174.2,76.9h1.4 M174.8,77.7
		v-1.5 M163,76.9h1.4 M163.7,77.7v-1.5 M154.7,76.9h1.4 M155.4,77.7v-1.5 M166,76.9h1.4 M166.7,77.7v-1.5 M154.3,76.9h1.4
		 M154.9,77.7v-1.5 M176,76.9h1.4 M176.7,77.7v-1.5 M159,76.9h1.4 M159.6,77.7v-1.5 M153,76.9h1.4 M153.7,77.7v-1.5 M162.7,76.8h1.4
		 M163.4,77.6V76 M158,76.8h1.4 M158.7,77.6V76 M163.6,76.8h1.4 M164.3,77.6V76 M167.7,76.7h1.4 M168.4,77.4v-1.5 M183.4,76.7h1.4
		 M184.1,77.4v-1.5 M161.7,76.7h1.4 M162.3,77.4v-1.5 M182.8,76.5h1.4 M183.5,77.3v-1.5 M169.4,76.4h1.4 M170.1,77.2v-1.5 M160,76.4
		h1.4 M160.7,77.2v-1.5 M174.1,76.3h1.4 M174.7,77.1v-1.5 M164.1,76.3h1.4 M164.7,77.1v-1.5 M157.7,76.3h1.4 M158.4,77.1v-1.5
		 M161.4,76h1.4 M162,76.7v-1.5 M170.4,76h1.4 M171.1,76.7v-1.5 M155,75.2h1.4 M155.7,76v-1.5 M171,75.1h1.4 M171.7,75.9v-1.5
		 M175.7,73.4h1.4 M176.4,74.1v-1.5 M174.4,71.7h1.4 M175.1,72.5v-1.5"/>
	<line class="st13" x1="143.7" y1="71.7" x2="194.3" y2="71.7"/>
	<path class="st12" d="M177.3,79.5l-0.1-0.4l-0.2-0.3l-0.3-0.1l-0.3,0.1l-0.2,0.3l-0.1,0.4l0.1,0.4l0.2,0.3l0.3,0.1l0.3-0.1l0.2-0.3
		L177.3,79.5z M164,79.5l-0.1-0.4l-0.2-0.3l-0.3-0.1l-0.3,0.1l-0.2,0.3l-0.1,0.4l0.1,0.4l0.2,0.3l0.3,0.1l0.3-0.1l0.2-0.3L164,79.5z
		 M170.7,79.5l-0.1-0.4l-0.2-0.3l-0.3-0.1l-0.3,0.1l-0.2,0.3l-0.1,0.4l0.1,0.4l0.2,0.3l0.3,0.1l0.3-0.1l0.2-0.3L170.7,79.5z
		 M170.7,79.5l-0.1-0.4l-0.2-0.3l-0.3-0.1l-0.3,0.1l-0.2,0.3l-0.1,0.4l0.1,0.4l0.2,0.3l0.3,0.1l0.3-0.1l0.2-0.3L170.7,79.5z
		 M173.4,79.5l-0.1-0.4l-0.2-0.3l-0.3-0.1l-0.3,0.1l-0.2,0.3l-0.1,0.4l0.1,0.4l0.2,0.3l0.3,0.1l0.3-0.1l0.2-0.3L173.4,79.5z
		 M172,79.5l-0.1-0.4l-0.2-0.3l-0.3-0.1l-0.3,0.1l-0.2,0.3l-0.1,0.4l0.1,0.4l0.2,0.3l0.3,0.1l0.3-0.1l0.2-0.3L172,79.5z M159.9,79.5
		l-0.1-0.4l-0.2-0.3l-0.3-0.1l-0.3,0.1l-0.2,0.3l-0.1,0.4l0.1,0.4l0.2,0.3l0.3,0.1l0.3-0.1l0.2-0.3L159.9,79.5z M163.3,79.5
		l-0.1-0.4l-0.2-0.3l-0.3-0.1l-0.3,0.1l-0.2,0.3l-0.1,0.4l0.1,0.4l0.2,0.3l0.3,0.1l0.3-0.1l0.2-0.3L163.3,79.5z M164.4,79.5
		l-0.1-0.4l-0.2-0.3l-0.3-0.1l-0.3,0.1l-0.2,0.3l-0.1,0.4l0.1,0.4l0.2,0.3l0.3,0.1l0.3-0.1l0.2-0.3L164.4,79.5z M171.4,79.5
		l-0.1-0.4l-0.2-0.3l-0.3-0.1l-0.3,0.1l-0.2,0.3l-0.1,0.4l0.1,0.4l0.2,0.3l0.3,0.1l0.3-0.1l0.2-0.3L171.4,79.5z M162,79.3l-0.1-0.4
		l-0.2-0.3l-0.3-0.1l-0.3,0.1l-0.2,0.3l-0.1,0.4l0.1,0.4l0.2,0.3l0.3,0.1l0.3-0.1l0.2-0.3L162,79.3z M170.1,79.3l-0.1-0.4l-0.2-0.3
		l-0.3-0.1l-0.3,0.1l-0.2,0.3l-0.1,0.4l0.1,0.4l0.2,0.3l0.3,0.1l0.3-0.1l0.2-0.3L170.1,79.3z M170.1,79.3l-0.1-0.4l-0.2-0.3
		l-0.3-0.1l-0.3,0.1l-0.2,0.3l-0.1,0.4l0.1,0.4l0.2,0.3l0.3,0.1l0.3-0.1l0.2-0.3L170.1,79.3z M171.4,79.1l-0.1-0.4l-0.2-0.3
		l-0.3-0.1l-0.3,0.1l-0.2,0.3l-0.1,0.4l0.1,0.4l0.2,0.3l0.3,0.1l0.3-0.1l0.2-0.3L171.4,79.1z M176.1,79.1l-0.1-0.4l-0.2-0.3
		l-0.3-0.1l-0.3,0.1l-0.2,0.3l-0.1,0.4l0.1,0.4l0.2,0.3l0.3,0.1l0.3-0.1l0.2-0.3L176.1,79.1z M173.4,79.1l-0.1-0.4l-0.2-0.3
		l-0.3-0.1l-0.3,0.1l-0.2,0.3l-0.1,0.4l0.1,0.4l0.2,0.3l0.3,0.1l0.3-0.1l0.2-0.3L173.4,79.1z M164,79.1l-0.1-0.4l-0.2-0.3l-0.3-0.1
		l-0.3,0.1l-0.2,0.3l-0.1,0.4l0.1,0.4l0.2,0.3l0.3,0.1l0.3-0.1l0.2-0.3L164,79.1z M166.7,79.1l-0.1-0.4l-0.2-0.3l-0.3-0.1l-0.3,0.1
		l-0.2,0.3l-0.1,0.4l0.1,0.4l0.2,0.3l0.3,0.1l0.3-0.1l0.2-0.3L166.7,79.1z M176.1,79.1l-0.1-0.4l-0.2-0.3l-0.3-0.1l-0.3,0.1
		l-0.2,0.3l-0.1,0.4l0.1,0.4l0.2,0.3l0.3,0.1l0.3-0.1l0.2-0.3L176.1,79.1z M172.7,79l-0.1-0.4l-0.2-0.3l-0.3-0.1l-0.3,0.1l-0.2,0.3
		l-0.1,0.4l0.1,0.4l0.2,0.3l0.3,0.1l0.3-0.1l0.2-0.3L172.7,79z M172,78.9l-0.1-0.4l-0.2-0.3l-0.3-0.1l-0.3,0.1l-0.2,0.3l-0.1,0.4
		l0.1,0.4l0.2,0.3l0.3,0.1l0.3-0.1l0.2-0.3L172,78.9z M164.6,78.9l-0.1-0.4l-0.2-0.3l-0.3-0.1l-0.3,0.1l-0.2,0.3l-0.1,0.4l0.1,0.4
		l0.2,0.3l0.3,0.1l0.3-0.1l0.2-0.3L164.6,78.9z M156,78.8l-0.1-0.4l-0.2-0.3l-0.3-0.1l-0.3,0.1l-0.2,0.3l-0.1,0.4l0.1,0.4l0.2,0.3
		l0.3,0.1l0.3-0.1l0.2-0.3L156,78.8z M168,78.8l-0.1-0.4l-0.2-0.3l-0.3-0.1l-0.3,0.1l-0.2,0.3l-0.1,0.4l0.1,0.4l0.2,0.3l0.3,0.1
		l0.3-0.1l0.2-0.3L168,78.8z M164.6,78.4l-0.1-0.4l-0.2-0.3l-0.3-0.1l-0.3,0.1l-0.2,0.3l-0.1,0.4l0.1,0.4l0.2,0.3l0.3,0.1l0.3-0.1
		l0.2-0.3L164.6,78.4z M156,78.3l-0.1-0.4l-0.2-0.3l-0.3-0.1l-0.3,0.1l-0.2,0.3l-0.1,0.4l0.1,0.4l0.2,0.3l0.3,0.1l0.3-0.1l0.2-0.3
		L156,78.3z M170.7,78l-0.1-0.4l-0.2-0.3l-0.3-0.1l-0.3,0.1l-0.2,0.3l-0.1,0.4l0.1,0.4l0.2,0.3l0.3,0.1l0.3-0.1l0.2-0.3L170.7,78z
		 M164.4,77l-0.1-0.4l-0.2-0.3l-0.3-0.1l-0.3,0.1l-0.2,0.3l-0.1,0.4l0.1,0.4l0.2,0.3l0.3,0.1l0.3-0.1l0.2-0.3L164.4,77z M168.7,76.9
		l-0.1-0.4l-0.2-0.3l-0.3-0.1l-0.3,0.1l-0.2,0.3l-0.1,0.4l0.1,0.4l0.2,0.3l0.3,0.1l0.3-0.1l0.2-0.3L168.7,76.9z M164,76.1l-0.1-0.4
		l-0.2-0.3l-0.3-0.1l-0.3,0.1l-0.2,0.3l-0.1,0.4l0.1,0.4l0.2,0.3l0.3,0.1l0.3-0.1l0.2-0.3L164,76.1z M162,75.4l-0.1-0.4l-0.2-0.3
		l-0.3-0.1l-0.3,0.1l-0.2,0.3l-0.1,0.4l0.1,0.4l0.2,0.3l0.3,0.1l0.3-0.1l0.2-0.3L162,75.4z M156.6,73.7l-0.1-0.4l-0.2-0.3L156,73
		l-0.3,0.1l-0.2,0.3l-0.1,0.4l0.1,0.4l0.2,0.3l0.3,0.1l0.3-0.1l0.2-0.3L156.6,73.7z"/>
	<line class="st10" x1="143.7" y1="73.7" x2="194.3" y2="73.7"/>
	<path class="st9" d="M153.8,89.8h1.4 M154.4,90.6V89 M154,90.3l0.9-1.1 M154,89.3l0.9,1.1 M170.4,89.8h1.4 M171.1,90.6V89
		 M170.6,90.3l0.9-1.1 M170.6,89.3l0.9,1.1 M166,89.7h1.4 M166.7,90.4v-1.5 M166.3,90.2l0.9-1.1 M166.3,89.1l0.9,1.1 M156,89.7h1.4
		 M156.7,90.4v-1.5 M156.3,90.2l0.9-1.1 M156.3,89.1l0.9,1.1 M176,89.6h1.4 M176.7,90.3v-1.5 M176.3,90.1l0.9-1.1 M176.3,89l0.9,1.1
		 M156,89.6h1.4 M156.7,90.3v-1.5 M156.3,90.1l0.9-1.1 M156.3,89l0.9,1.1 M172.7,89.6h1.4 M173.4,90.3v-1.5 M172.9,90.1l0.9-1.1
		 M172.9,89l0.9,1.1 M162.7,89.4h1.4 M163.4,90.2v-1.5 M162.9,90l0.9-1.1 M162.9,88.9l0.9,1.1 M152.6,89.4h1.4 M153.3,90.2v-1.5
		 M152.8,90l0.9-1.1 M152.8,88.9l0.9,1.1 M166,89.3h1.4 M166.7,90.1v-1.5 M166.3,89.8l0.9-1.1 M166.3,88.8l0.9,1.1 M172.7,89.3h1.4
		 M173.4,90.1v-1.5 M172.9,89.8l0.9-1.1 M172.9,88.8l0.9,1.1 M172.7,89.2h1.4 M173.4,90v-1.5 M172.9,89.7l0.9-1.1 M172.9,88.7
		l0.9,1.1 M176,89.2h1.4 M176.7,90v-1.5 M176.3,89.7l0.9-1.1 M176.3,88.7l0.9,1.1 M166,89.1h1.4 M166.7,89.8v-1.5 M166.3,89.6
		l0.9-1.1 M166.3,88.5l0.9,1.1 M152.6,89h1.4 M153.3,89.7v-1.5 M152.8,89.5l0.9-1.1 M152.8,88.4l0.9,1.1 M179.5,88.8h1.4
		 M180.2,89.6v-1.5 M179.7,89.4l0.9-1.1 M179.7,88.3l0.9,1.1 M179.5,88.8h1.4 M180.2,89.6v-1.5 M179.7,89.4l0.9-1.1 M179.7,88.3
		l0.9,1.1 M152.6,88.7h1.4 M153.3,89.5V88 M152.8,89.3l0.9-1.1 M152.8,88.2l0.9,1.1 M159.4,88.5h1.4 M160.1,89.3v-1.5 M159.6,89
		l0.9-1.1 M159.6,88l0.9,1.1 M169.4,88.1h1.4 M170.1,88.9v-1.5 M169.6,88.7l0.9-1.1 M169.6,87.6l0.9,1.1 M162.7,88h1.4 M163.4,88.8
		v-1.5 M162.9,88.5l0.9-1.1 M162.9,87.5l0.9,1.1 M166,87.7h1.4 M166.7,88.4v-1.5 M166.3,88.2l0.9-1.1 M166.3,87.1l0.9,1.1
		 M182.8,87.5h1.4 M183.5,88.3v-1.5 M183,88.1L184,87 M183,87l0.9,1.1 M186.1,87.1h1.4 M186.8,87.8v-1.5 M186.4,87.6l0.9-1.1
		 M186.4,86.5l0.9,1.1 M145.9,86.8h1.4 M146.6,87.6v-1.5 M146.1,87.4l0.9-1.1 M146.1,86.3l0.9,1.1 M159.4,86.7h1.4 M160.1,87.5v-1.5
		 M159.6,87.2l0.9-1.1 M159.6,86.2l0.9,1.1 M179.5,86.7h1.4 M180.2,87.5v-1.5 M179.7,87.2l0.9-1.1 M179.7,86.2l0.9,1.1 M172.7,85.3
		h1.4 M173.4,86.1v-1.5 M172.9,85.8l0.9-1.1 M172.9,84.8l0.9,1.1 M149.3,85.2h1.4 M149.9,85.9v-1.5 M149.5,85.7l0.9-1.1 M149.5,84.6
		l0.9,1.1 M162.7,84.9h1.4 M163.4,85.7v-1.5 M162.9,85.5l0.9-1.1 M162.9,84.4l0.9,1.1 M152.6,84h1.4 M153.3,84.8v-1.5 M152.8,84.5
		l0.9-1.1 M152.8,83.5l0.9,1.1 M182.8,83.6h1.4 M183.5,84.4v-1.5 M183,84.2l0.9-1.1 M183,83.1l0.9,1.1"/>
	<line class="st8" x1="143.7" y1="83.6" x2="194.3" y2="83.6"/>
	<path class="st17" d="M182.9,91.6h1.4l-0.7-1.4L182.9,91.6z M166.2,91.6h1.4l-0.7-1.4L166.2,91.6z M186.6,91.6h1.4l-0.7-1.4
		L186.6,91.6z M175.9,91.6h1.4l-0.7-1.4L175.9,91.6z M168.2,91.6h1.4l-0.7-1.4L168.2,91.6z M188.5,91.6h1.4l-0.7-1.4L188.5,91.6z
		 M186.2,91.6h1.4l-0.7-1.4L186.2,91.6z M187.4,91.6h1.4l-0.7-1.4L187.4,91.6z M188.3,91.6h1.4l-0.7-1.4L188.3,91.6z M193.6,91.6
		h1.4l-0.7-1.4L193.6,91.6z M159.9,91.3h1.4l-0.7-1.4L159.9,91.3z M183.4,91.1h1.4l-0.7-1.4L183.4,91.1z M191.2,91.1h1.4l-0.7-1.4
		L191.2,91.1z M163.3,91h1.4l-0.7-1.4L163.3,91z M157.7,90.6h1.4l-0.7-1.4L157.7,90.6z M153.7,90.4h1.4l-0.7-1.4L153.7,90.4z
		 M178.5,89h1.4l-0.7-1.4L178.5,89z M153.5,87.3h1.4l-0.7-1.4L153.5,87.3z M170.9,87.1h1.4l-0.7-1.4L170.9,87.1z M155.6,87.1h1.4
		l-0.7-1.4L155.6,87.1z M161,87h1.4l-0.7-1.4L161,87z M163.7,86.2h1.4l-0.7-1.4L163.7,86.2z M143,85.4h1.4l-0.7-1.4L143,85.4z
		 M180.1,82.8h1.4l-0.7-1.4L180.1,82.8z M147.2,78.8h1.4l-0.7-1.4L147.2,78.8z M147.8,77.7h1.4l-0.7-1.4L147.8,77.7z M144.7,76.5
		h1.4l-0.7-1.4L144.7,76.5z M149.3,75.2h1.4l-0.7-1.4L149.3,75.2z M143.3,71.1h1.4l-0.7-1.4L143.3,71.1z M148.8,67.7h1.4l-0.7-1.4
		L148.8,67.7z M145.9,63.9h1.4l-0.7-1.4L145.9,63.9z M148.3,58.3h1.4l-0.7-1.4L148.3,58.3z"/>
	<line class="st15" x1="143.7" y1="57.9" x2="194.3" y2="57.9"/>
	<text transform="matrix(0.8809 0 0 1 51.25 45.4122)" class="st3 st22">8</text>
	<text transform="matrix(0.8809 0 0 1 68.6013 45.4123)" class="st3 st22">16</text>
	<text transform="matrix(0.8809 0 0 1 44.6247 99.9552)" class="st3 st4">0</text>
	<text transform="matrix(0.8809 0 0 1 57.039 99.9557)" class="st3 st4">0.5</text>
	<text transform="matrix(0.8809 0 0 1 70.0446 99.9554)" class="st3 st4">1.0</text>
	<text transform="matrix(0.8809 0 0 1 83.1694 99.9556)" class="st3 st4">1.5</text>
	<text transform="matrix(0.8809 0 0 1 97.0444 99.9562)" class="st3 st4">2.0</text>
	<text transform="matrix(0.8809 0 0 1 110.7289 99.9554)" class="st3 st4">2.5</text>
	<text transform="matrix(1 0 0 1 64.3469 50.5872)" class="st3 st26">Threads</text>
	<text transform="matrix(0 -1 1 0 37.6387 37.4023)" class="st3 st26">Running time (mn)</text>
	<text transform="matrix(0 -1 1 0 37.6385 95.356)" class="st3 st26">Time spent per worker</text>
	<text transform="matrix(1 0 0 1 8.0103 6.999)" class="st3 st26">FFVA</text>
	<text transform="matrix(1 0 0 1 8.0104 22.9075)" class="st3 st26">VFFVA-500</text>
	<text transform="matrix(1 0 0 1 8.0103 12.1213)" class="st3 st26">VFFVA-50</text>
	<text transform="matrix(1 0 0 1 8.0106 17.7696)" class="st3 st26">VFFVA-100</text>
	<text transform="matrix(1 0 0 1 8.0106 28.6373)" class="st3 st26">VFFVA-guided</text>
	<text transform="matrix(1 0 0 1 8.0103 34.6985)" class="st3 st26">VFFVA-static</text>
	<text transform="matrix(1 0 0 1 8.0103 40.9278)" class="st3 st26">distributedFBA</text>
	<text transform="matrix(-1.836970e-16 -1 1 -1.836970e-16 124.4684 63.1816)" class="st3 st26">Time spent by worker</text>
	<text transform="matrix(1 0 0 1 188.3092 8.0152)" class="st3 st26">Chunk 50</text>
	<text transform="matrix(1 0 0 1 188.3092 11.9715)" class="st3 st26">Chunk 100</text>
	<text transform="matrix(1 0 0 1 188.3092 15.4598)" class="st3 st26">Chunk 500</text>
	<text transform="matrix(1 0 0 1 188.309 18.9677)" class="st3 st26">Guided</text>
	<text transform="matrix(1 0 0 1 188.3092 23.3603)" class="st3 st26">Total time</text>
	<text transform="matrix(1 0 0 1 61.3098 104.6304)"><tspan x="0" y="0" class="st3 st26">Number of iterations</tspan><tspan x="0" y="4.8" class="st3 st26">processed by worker</tspan></text>
	<text transform="matrix(1 0 0 1 153.4969 104.63)"><tspan x="0" y="0" class="st3 st26">Number of iterations</tspan><tspan x="0" y="4.8" class="st3 st26">processed by worker</tspan></text>
	<text transform="matrix(1 0 0 1 153.9585 49.1686)"><tspan x="0" y="0" class="st3 st26">Number of iterations</tspan><tspan x="0" y="4.8" class="st3 st26">processed by worker</tspan></text>
</g>
</svg>
